<svg xmlns="http://www.w3.org/2000/svg" xmlns:xlink="http://www.w3.org/1999/xlink" width="500" zoomAndPan="magnify" viewBox="0 0 375 374.999991" height="500" preserveAspectRatio="xMidYMid meet" version="1.0"><defs><filter x="0%" y="0%" width="100%" height="100%" id="55d60c7c07"><feColorMatrix values="0 0 0 0 1 0 0 0 0 1 0 0 0 0 1 0 0 0 1 0" color-interpolation-filters="sRGB"/></filter><g/><mask id="0bec5e6cbf"><g filter="url(#55d60c7c07)"><rect x="-37.5" width="450" fill="#000000" y="-37.499999" height="449.999989" fill-opacity="0.85"/></g></mask><clipPath id="5883e50b19"><path d="M 0.855469 0.234375 L 110.921875 0.234375 L 110.921875 126.984375 L 0.855469 126.984375 Z M 0.855469 0.234375 " clip-rule="nonzero"/></clipPath><clipPath id="9a676c7d46"><rect x="0" width="111" y="0" height="128"/></clipPath></defs><g mask="url(#0bec5e6cbf)"><g transform="matrix(1, 0, 0, 1, 65, 124)"><g clip-path="url(#9a676c7d46)"><g clip-path="url(#5883e50b19)"><path fill="#2f4eff" d="M 91.597656 126.746094 L 19.707031 126.746094 C 19.09375 126.746094 18.480469 126.714844 17.867188 126.65625 C 17.253906 126.59375 16.648438 126.503906 16.042969 126.382812 C 15.441406 126.261719 14.84375 126.113281 14.253906 125.933594 C 13.667969 125.753906 13.089844 125.546875 12.519531 125.3125 C 11.953125 125.074219 11.398438 124.8125 10.855469 124.523438 C 10.3125 124.230469 9.785156 123.917969 9.273438 123.574219 C 8.761719 123.234375 8.269531 122.867188 7.792969 122.476562 C 7.316406 122.085938 6.863281 121.671875 6.429688 121.238281 C 5.992188 120.804688 5.582031 120.347656 5.191406 119.871094 C 4.800781 119.398438 4.433594 118.902344 4.089844 118.390625 C 3.75 117.878906 3.433594 117.355469 3.144531 116.8125 C 2.851562 116.269531 2.589844 115.714844 2.355469 115.144531 C 2.117188 114.578125 1.910156 114 1.730469 113.410156 C 1.554688 112.820312 1.402344 112.226562 1.28125 111.621094 C 1.164062 111.019531 1.070312 110.410156 1.011719 109.800781 C 0.949219 109.1875 0.917969 108.574219 0.917969 107.957031 L 0.917969 57.5625 C 0.914062 55.167969 1.359375 52.855469 2.257812 50.636719 C 3.15625 48.414062 4.441406 46.445312 6.109375 44.722656 L 44.570312 4.953125 C 44.925781 4.582031 45.300781 4.226562 45.695312 3.894531 C 46.089844 3.558594 46.496094 3.246094 46.921875 2.953125 C 47.347656 2.660156 47.785156 2.386719 48.238281 2.140625 C 48.691406 1.890625 49.15625 1.664062 49.628906 1.460938 C 50.105469 1.261719 50.589844 1.082031 51.082031 0.929688 C 51.574219 0.777344 52.074219 0.648438 52.578125 0.542969 C 53.085938 0.441406 53.59375 0.363281 54.109375 0.3125 C 54.621094 0.257812 55.136719 0.234375 55.652344 0.234375 C 56.167969 0.234375 56.683594 0.257812 57.199219 0.3125 C 57.710938 0.363281 58.222656 0.441406 58.726562 0.542969 C 59.230469 0.648438 59.730469 0.777344 60.222656 0.929688 C 60.71875 1.082031 61.203125 1.261719 61.675781 1.460938 C 62.152344 1.664062 62.613281 1.890625 63.066406 2.140625 C 63.519531 2.386719 63.957031 2.660156 64.382812 2.953125 C 64.808594 3.246094 65.21875 3.558594 65.609375 3.894531 C 66.003906 4.226562 66.378906 4.582031 66.738281 4.953125 L 108.78125 48.429688 C 109.042969 48.699219 109.277344 48.992188 109.480469 49.308594 C 109.6875 49.625 109.859375 49.957031 110 50.304688 C 110.140625 50.65625 110.242188 51.015625 110.3125 51.386719 C 110.378906 51.757812 110.410156 52.128906 110.40625 52.507812 C 110.398438 52.882812 110.359375 53.253906 110.277344 53.625 C 110.199219 53.992188 110.085938 54.347656 109.9375 54.695312 C 109.785156 55.039062 109.605469 55.367188 109.390625 55.675781 C 109.175781 55.988281 108.933594 56.273438 108.664062 56.535156 C 108.390625 56.796875 108.097656 57.03125 107.78125 57.234375 C 107.464844 57.4375 107.132812 57.609375 106.78125 57.746094 C 106.429688 57.882812 106.070312 57.984375 105.699219 58.050781 C 105.328125 58.117188 104.953125 58.148438 104.578125 58.140625 C 104.203125 58.132812 103.828125 58.089844 103.460938 58.007812 C 103.09375 57.929688 102.738281 57.8125 102.394531 57.660156 C 102.046875 57.511719 101.722656 57.328125 101.414062 57.113281 C 101.101562 56.894531 100.820312 56.652344 100.558594 56.378906 L 58.511719 12.917969 C 58.328125 12.722656 58.128906 12.550781 57.910156 12.394531 C 57.6875 12.242188 57.457031 12.109375 57.210938 12.003906 C 56.964844 11.898438 56.710938 11.816406 56.449219 11.761719 C 56.1875 11.707031 55.921875 11.679688 55.652344 11.679688 C 55.386719 11.679688 55.121094 11.707031 54.855469 11.761719 C 54.59375 11.816406 54.339844 11.898438 54.09375 12.003906 C 53.847656 12.109375 53.617188 12.242188 53.398438 12.394531 C 53.179688 12.550781 52.976562 12.722656 52.792969 12.917969 L 14.332031 52.675781 C 13.699219 53.332031 13.210938 54.085938 12.871094 54.933594 C 12.53125 55.78125 12.367188 56.664062 12.371094 57.578125 L 12.371094 107.957031 C 12.371094 108.441406 12.417969 108.917969 12.515625 109.390625 C 12.609375 109.867188 12.75 110.324219 12.933594 110.769531 C 13.117188 111.214844 13.34375 111.640625 13.613281 112.039062 C 13.882812 112.441406 14.1875 112.8125 14.527344 113.15625 C 14.867188 113.496094 15.242188 113.800781 15.640625 114.070312 C 16.042969 114.335938 16.464844 114.5625 16.910156 114.75 C 17.359375 114.933594 17.816406 115.074219 18.289062 115.167969 C 18.761719 115.261719 19.242188 115.308594 19.722656 115.3125 L 91.613281 115.3125 C 91.988281 115.3125 92.363281 115.347656 92.730469 115.421875 C 93.097656 115.492188 93.457031 115.601562 93.804688 115.746094 C 94.148438 115.890625 94.480469 116.066406 94.792969 116.273438 C 95.105469 116.484375 95.390625 116.71875 95.65625 116.984375 C 95.921875 117.25 96.160156 117.539062 96.371094 117.851562 C 96.578125 118.164062 96.753906 118.492188 96.898438 118.839844 C 97.042969 119.1875 97.148438 119.546875 97.222656 119.914062 C 97.296875 120.28125 97.332031 120.652344 97.332031 121.03125 C 97.332031 121.40625 97.296875 121.777344 97.222656 122.144531 C 97.148438 122.511719 97.042969 122.871094 96.898438 123.21875 C 96.753906 123.566406 96.578125 123.894531 96.371094 124.207031 C 96.160156 124.519531 95.921875 124.808594 95.65625 125.074219 C 95.390625 125.339844 95.105469 125.574219 94.792969 125.785156 C 94.480469 125.992188 94.148438 126.167969 93.804688 126.3125 C 93.457031 126.457031 93.097656 126.566406 92.730469 126.636719 C 92.363281 126.710938 91.988281 126.746094 91.613281 126.746094 Z M 91.597656 126.746094 " fill-opacity="1" fill-rule="nonzero"/></g></g></g></g><g fill="#04034e" fill-opacity="1"><g transform="translate(86.627475, 211.249995)"><g><path d="M 16.78125 -18.1875 L 16.78125 0 L 13.46875 0 L 5.5625 -11.4375 L 5.421875 -11.4375 L 5.421875 0 L 1.578125 0 L 1.578125 -18.1875 L 4.953125 -18.1875 L 12.796875 -6.75 L 12.96875 -6.75 L 12.96875 -18.1875 Z M 16.78125 -18.1875 "/></g></g></g><g fill="#04034e" fill-opacity="1"><g transform="translate(105.626832, 211.249995)"><g><path d="M 7.71875 0.265625 C 6.320312 0.265625 5.117188 -0.0195312 4.109375 -0.59375 C 3.097656 -1.164062 2.316406 -1.972656 1.765625 -3.015625 C 1.222656 -4.066406 0.953125 -5.3125 0.953125 -6.75 C 0.953125 -8.15625 1.222656 -9.382812 1.765625 -10.4375 C 2.316406 -11.5 3.085938 -12.328125 4.078125 -12.921875 C 5.066406 -13.515625 6.234375 -13.8125 7.578125 -13.8125 C 8.773438 -13.8125 9.859375 -13.554688 10.828125 -13.046875 C 11.796875 -12.535156 12.5625 -11.765625 13.125 -10.734375 C 13.695312 -9.710938 13.984375 -8.429688 13.984375 -6.890625 L 13.984375 -5.84375 L 4.703125 -5.84375 C 4.703125 -4.820312 4.976562 -4.019531 5.53125 -3.4375 C 6.082031 -2.851562 6.832031 -2.5625 7.78125 -2.5625 C 8.414062 -2.5625 8.960938 -2.691406 9.421875 -2.953125 C 9.890625 -3.222656 10.21875 -3.617188 10.40625 -4.140625 L 13.90625 -3.90625 C 13.632812 -2.632812 12.957031 -1.617188 11.875 -0.859375 C 10.789062 -0.109375 9.40625 0.265625 7.71875 0.265625 Z M 4.703125 -8.1875 L 10.421875 -8.1875 C 10.410156 -9 10.148438 -9.664062 9.640625 -10.1875 C 9.128906 -10.71875 8.460938 -10.984375 7.640625 -10.984375 C 6.796875 -10.984375 6.101562 -10.710938 5.5625 -10.171875 C 5.03125 -9.628906 4.742188 -8.96875 4.703125 -8.1875 Z M 4.703125 -8.1875 "/></g></g></g><g fill="#04034e" fill-opacity="1"><g transform="translate(121.190982, 211.249995)"><g><path d="M 1.515625 0 L 1.515625 -13.640625 L 5.296875 -13.640625 L 5.296875 0 Z M 3.40625 -15.390625 C 2.851562 -15.390625 2.375 -15.578125 1.96875 -15.953125 C 1.5625 -16.328125 1.359375 -16.78125 1.359375 -17.3125 C 1.359375 -17.84375 1.5625 -18.289062 1.96875 -18.65625 C 2.375 -19.03125 2.851562 -19.21875 3.40625 -19.21875 C 3.96875 -19.21875 4.445312 -19.03125 4.84375 -18.65625 C 5.25 -18.289062 5.453125 -17.84375 5.453125 -17.3125 C 5.453125 -16.78125 5.25 -16.328125 4.84375 -15.953125 C 4.445312 -15.578125 3.96875 -15.390625 3.40625 -15.390625 Z M 3.40625 -15.390625 "/></g></g></g><g fill="#04034e" fill-opacity="1"><g transform="translate(128.615384, 211.249995)"><g><path d="M 7.65625 5.3125 C 5.820312 5.3125 4.378906 4.945312 3.328125 4.21875 C 2.273438 3.5 1.640625 2.625 1.421875 1.59375 L 4.921875 1.125 C 5.078125 1.488281 5.375 1.820312 5.8125 2.125 C 6.257812 2.4375 6.898438 2.59375 7.734375 2.59375 C 8.554688 2.59375 9.234375 2.394531 9.765625 2 C 10.304688 1.613281 10.578125 0.972656 10.578125 0.078125 L 10.578125 -2.421875 L 10.421875 -2.421875 C 10.171875 -1.859375 9.734375 -1.34375 9.109375 -0.875 C 8.484375 -0.414062 7.625 -0.1875 6.53125 -0.1875 C 5.507812 -0.1875 4.578125 -0.425781 3.734375 -0.90625 C 2.898438 -1.394531 2.234375 -2.128906 1.734375 -3.109375 C 1.242188 -4.085938 1 -5.332031 1 -6.84375 C 1 -8.394531 1.25 -9.6875 1.75 -10.71875 C 2.257812 -11.75 2.929688 -12.519531 3.765625 -13.03125 C 4.609375 -13.550781 5.53125 -13.8125 6.53125 -13.8125 C 7.289062 -13.8125 7.925781 -13.679688 8.4375 -13.421875 C 8.957031 -13.171875 9.375 -12.851562 9.6875 -12.46875 C 10.007812 -12.09375 10.253906 -11.71875 10.421875 -11.34375 L 10.5625 -11.34375 L 10.5625 -13.640625 L 14.3125 -13.640625 L 14.3125 0.140625 C 14.3125 1.265625 14.023438 2.210938 13.453125 2.984375 C 12.890625 3.753906 12.109375 4.332031 11.109375 4.71875 C 10.109375 5.113281 8.957031 5.3125 7.65625 5.3125 Z M 7.734375 -3.03125 C 8.640625 -3.03125 9.34375 -3.367188 9.84375 -4.046875 C 10.34375 -4.722656 10.59375 -5.660156 10.59375 -6.859375 C 10.59375 -8.054688 10.34375 -9.007812 9.84375 -9.71875 C 9.351562 -10.4375 8.648438 -10.796875 7.734375 -10.796875 C 6.796875 -10.796875 6.082031 -10.429688 5.59375 -9.703125 C 5.101562 -8.972656 4.859375 -8.023438 4.859375 -6.859375 C 4.859375 -5.679688 5.101562 -4.75 5.59375 -4.0625 C 6.09375 -3.375 6.804688 -3.03125 7.734375 -3.03125 Z M 7.734375 -3.03125 "/></g></g></g><g fill="#04034e" fill-opacity="1"><g transform="translate(145.067184, 211.249995)"><g><path d="M 5.296875 -7.890625 L 5.296875 0 L 1.515625 0 L 1.515625 -18.1875 L 5.1875 -18.1875 L 5.1875 -11.234375 L 5.34375 -11.234375 C 5.65625 -12.035156 6.148438 -12.664062 6.828125 -13.125 C 7.515625 -13.582031 8.378906 -13.8125 9.421875 -13.8125 C 10.835938 -13.8125 11.976562 -13.351562 12.84375 -12.4375 C 13.707031 -11.53125 14.140625 -10.28125 14.140625 -8.6875 L 14.140625 0 L 10.34375 0 L 10.34375 -8 C 10.351562 -8.84375 10.144531 -9.5 9.71875 -9.96875 C 9.289062 -10.4375 8.691406 -10.671875 7.921875 -10.671875 C 7.148438 -10.671875 6.519531 -10.425781 6.03125 -9.9375 C 5.539062 -9.445312 5.296875 -8.765625 5.296875 -7.890625 Z M 5.296875 -7.890625 "/></g></g></g><g fill="#04034e" fill-opacity="1"><g transform="translate(161.297068, 211.249995)"><g><path d="M 1.578125 0 L 1.578125 -18.1875 L 5.359375 -18.1875 L 5.359375 -11.34375 L 5.484375 -11.34375 C 5.648438 -11.71875 5.890625 -12.09375 6.203125 -12.46875 C 6.515625 -12.851562 6.925781 -13.171875 7.4375 -13.421875 C 7.957031 -13.679688 8.597656 -13.8125 9.359375 -13.8125 C 10.359375 -13.8125 11.273438 -13.550781 12.109375 -13.03125 C 12.941406 -12.519531 13.609375 -11.742188 14.109375 -10.703125 C 14.617188 -9.660156 14.875 -8.359375 14.875 -6.796875 C 14.875 -5.273438 14.628906 -3.992188 14.140625 -2.953125 C 13.648438 -1.910156 12.988281 -1.117188 12.15625 -0.578125 C 11.320312 -0.046875 10.382812 0.21875 9.34375 0.21875 C 8.613281 0.21875 7.992188 0.0976562 7.484375 -0.140625 C 6.972656 -0.378906 6.554688 -0.679688 6.234375 -1.046875 C 5.910156 -1.421875 5.660156 -1.800781 5.484375 -2.1875 L 5.3125 -2.1875 L 5.3125 0 Z M 5.28125 -6.8125 C 5.28125 -5.601562 5.53125 -4.628906 6.03125 -3.890625 C 6.53125 -3.148438 7.238281 -2.78125 8.15625 -2.78125 C 9.082031 -2.78125 9.789062 -3.15625 10.28125 -3.90625 C 10.769531 -4.65625 11.015625 -5.625 11.015625 -6.8125 C 11.015625 -8 10.769531 -8.957031 10.28125 -9.6875 C 9.789062 -10.425781 9.082031 -10.796875 8.15625 -10.796875 C 7.238281 -10.796875 6.53125 -10.4375 6.03125 -9.71875 C 5.53125 -9 5.28125 -8.03125 5.28125 -6.8125 Z M 5.28125 -6.8125 "/></g></g></g><g fill="#04034e" fill-opacity="1"><g transform="translate(177.802125, 211.249995)"><g><path d="M 7.671875 0.265625 C 6.296875 0.265625 5.101562 -0.0234375 4.09375 -0.609375 C 3.09375 -1.203125 2.316406 -2.023438 1.765625 -3.078125 C 1.222656 -4.140625 0.953125 -5.367188 0.953125 -6.765625 C 0.953125 -8.171875 1.222656 -9.398438 1.765625 -10.453125 C 2.316406 -11.515625 3.09375 -12.335938 4.09375 -12.921875 C 5.101562 -13.515625 6.296875 -13.8125 7.671875 -13.8125 C 9.046875 -13.8125 10.234375 -13.515625 11.234375 -12.921875 C 12.242188 -12.335938 13.019531 -11.515625 13.5625 -10.453125 C 14.101562 -9.398438 14.375 -8.171875 14.375 -6.765625 C 14.375 -5.367188 14.101562 -4.140625 13.5625 -3.078125 C 13.019531 -2.023438 12.242188 -1.203125 11.234375 -0.609375 C 10.234375 -0.0234375 9.046875 0.265625 7.671875 0.265625 Z M 7.6875 -2.65625 C 8.625 -2.65625 9.332031 -3.046875 9.8125 -3.828125 C 10.289062 -4.609375 10.53125 -5.597656 10.53125 -6.796875 C 10.53125 -7.984375 10.289062 -8.96875 9.8125 -9.75 C 9.332031 -10.53125 8.625 -10.921875 7.6875 -10.921875 C 6.738281 -10.921875 6.019531 -10.53125 5.53125 -9.75 C 5.039062 -8.96875 4.796875 -7.984375 4.796875 -6.796875 C 4.796875 -5.597656 5.039062 -4.609375 5.53125 -3.828125 C 6.019531 -3.046875 6.738281 -2.65625 7.6875 -2.65625 Z M 7.6875 -2.65625 "/></g></g></g><g fill="#04034e" fill-opacity="1"><g transform="translate(193.765716, 211.249995)"><g><path d="M 10.25 -5.8125 L 10.25 -13.640625 L 14.03125 -13.640625 L 14.03125 0 L 10.40625 0 L 10.40625 -2.484375 L 10.265625 -2.484375 C 9.953125 -1.679688 9.4375 -1.035156 8.71875 -0.546875 C 8.007812 -0.0664062 7.144531 0.171875 6.125 0.171875 C 4.75 0.171875 3.632812 -0.28125 2.78125 -1.1875 C 1.9375 -2.101562 1.515625 -3.359375 1.515625 -4.953125 L 1.515625 -13.640625 L 5.296875 -13.640625 L 5.296875 -5.625 C 5.296875 -4.820312 5.507812 -4.1875 5.9375 -3.71875 C 6.363281 -3.25 6.9375 -3.015625 7.65625 -3.015625 C 8.332031 -3.015625 8.9375 -3.25 9.46875 -3.71875 C 10 -4.195312 10.257812 -4.894531 10.25 -5.8125 Z M 10.25 -5.8125 "/></g></g></g><g fill="#04034e" fill-opacity="1"><g transform="translate(209.933471, 211.249995)"><g><path d="M 1.515625 0 L 1.515625 -13.640625 L 5.171875 -13.640625 L 5.171875 -11.25 L 5.3125 -11.25 C 5.5625 -12.101562 5.976562 -12.742188 6.5625 -13.171875 C 7.144531 -13.609375 7.820312 -13.828125 8.59375 -13.828125 C 8.957031 -13.828125 9.296875 -13.78125 9.609375 -13.6875 C 9.921875 -13.601562 10.203125 -13.484375 10.453125 -13.328125 L 9.328125 -10.203125 C 9.148438 -10.296875 8.953125 -10.375 8.734375 -10.4375 C 8.523438 -10.5 8.289062 -10.53125 8.03125 -10.53125 C 7.269531 -10.53125 6.625 -10.269531 6.09375 -9.75 C 5.5625 -9.226562 5.296875 -8.550781 5.296875 -7.71875 L 5.296875 0 Z M 1.515625 0 "/></g></g></g><g fill="#04034e" fill-opacity="1"><g transform="translate(221.272402, 211.249995)"><g><path d="M 1.578125 0 L 1.578125 -18.1875 L 5.421875 -18.1875 L 5.421875 -10.6875 L 13.234375 -10.6875 L 13.234375 -18.1875 L 17.0625 -18.1875 L 17.0625 0 L 13.234375 0 L 13.234375 -7.515625 L 5.421875 -7.515625 L 5.421875 0 Z M 1.578125 0 "/></g></g></g><g fill="#04034e" fill-opacity="1"><g transform="translate(240.546929, 211.249995)"><g><path d="M 7.671875 0.265625 C 6.296875 0.265625 5.101562 -0.0234375 4.09375 -0.609375 C 3.09375 -1.203125 2.316406 -2.023438 1.765625 -3.078125 C 1.222656 -4.140625 0.953125 -5.367188 0.953125 -6.765625 C 0.953125 -8.171875 1.222656 -9.398438 1.765625 -10.453125 C 2.316406 -11.515625 3.09375 -12.335938 4.09375 -12.921875 C 5.101562 -13.515625 6.296875 -13.8125 7.671875 -13.8125 C 9.046875 -13.8125 10.234375 -13.515625 11.234375 -12.921875 C 12.242188 -12.335938 13.019531 -11.515625 13.5625 -10.453125 C 14.101562 -9.398438 14.375 -8.171875 14.375 -6.765625 C 14.375 -5.367188 14.101562 -4.140625 13.5625 -3.078125 C 13.019531 -2.023438 12.242188 -1.203125 11.234375 -0.609375 C 10.234375 -0.0234375 9.046875 0.265625 7.671875 0.265625 Z M 7.6875 -2.65625 C 8.625 -2.65625 9.332031 -3.046875 9.8125 -3.828125 C 10.289062 -4.609375 10.53125 -5.597656 10.53125 -6.796875 C 10.53125 -7.984375 10.289062 -8.96875 9.8125 -9.75 C 9.332031 -10.53125 8.625 -10.921875 7.6875 -10.921875 C 6.738281 -10.921875 6.019531 -10.53125 5.53125 -9.75 C 5.039062 -8.96875 4.796875 -7.984375 4.796875 -6.796875 C 4.796875 -5.597656 5.039062 -4.609375 5.53125 -3.828125 C 6.019531 -3.046875 6.738281 -2.65625 7.6875 -2.65625 Z M 7.6875 -2.65625 "/></g></g></g><g fill="#04034e" fill-opacity="1"><g transform="translate(256.51052, 211.249995)"><g><path d="M 7.671875 0.265625 C 6.296875 0.265625 5.101562 -0.0234375 4.09375 -0.609375 C 3.09375 -1.203125 2.316406 -2.023438 1.765625 -3.078125 C 1.222656 -4.140625 0.953125 -5.367188 0.953125 -6.765625 C 0.953125 -8.171875 1.222656 -9.398438 1.765625 -10.453125 C 2.316406 -11.515625 3.09375 -12.335938 4.09375 -12.921875 C 5.101562 -13.515625 6.296875 -13.8125 7.671875 -13.8125 C 9.046875 -13.8125 10.234375 -13.515625 11.234375 -12.921875 C 12.242188 -12.335938 13.019531 -11.515625 13.5625 -10.453125 C 14.101562 -9.398438 14.375 -8.171875 14.375 -6.765625 C 14.375 -5.367188 14.101562 -4.140625 13.5625 -3.078125 C 13.019531 -2.023438 12.242188 -1.203125 11.234375 -0.609375 C 10.234375 -0.0234375 9.046875 0.265625 7.671875 0.265625 Z M 7.6875 -2.65625 C 8.625 -2.65625 9.332031 -3.046875 9.8125 -3.828125 C 10.289062 -4.609375 10.53125 -5.597656 10.53125 -6.796875 C 10.53125 -7.984375 10.289062 -8.96875 9.8125 -9.75 C 9.332031 -10.53125 8.625 -10.921875 7.6875 -10.921875 C 6.738281 -10.921875 6.019531 -10.53125 5.53125 -9.75 C 5.039062 -8.96875 4.796875 -7.984375 4.796875 -6.796875 C 4.796875 -5.597656 5.039062 -4.609375 5.53125 -3.828125 C 6.019531 -3.046875 6.738281 -2.65625 7.6875 -2.65625 Z M 7.6875 -2.65625 "/></g></g></g><g fill="#04034e" fill-opacity="1"><g transform="translate(272.474112, 211.249995)"><g><path d="M 6.53125 0.21875 C 5.5 0.21875 4.566406 -0.046875 3.734375 -0.578125 C 2.898438 -1.117188 2.234375 -1.910156 1.734375 -2.953125 C 1.242188 -3.992188 1 -5.273438 1 -6.796875 C 1 -8.359375 1.25 -9.660156 1.75 -10.703125 C 2.257812 -11.742188 2.929688 -12.519531 3.765625 -13.03125 C 4.609375 -13.550781 5.53125 -13.8125 6.53125 -13.8125 C 7.289062 -13.8125 7.925781 -13.679688 8.4375 -13.421875 C 8.945312 -13.171875 9.359375 -12.851562 9.671875 -12.46875 C 9.992188 -12.09375 10.238281 -11.71875 10.40625 -11.34375 L 10.515625 -11.34375 L 10.515625 -18.1875 L 14.296875 -18.1875 L 14.296875 0 L 10.5625 0 L 10.5625 -2.1875 L 10.40625 -2.1875 C 10.226562 -1.800781 9.976562 -1.421875 9.65625 -1.046875 C 9.332031 -0.679688 8.914062 -0.378906 8.40625 -0.140625 C 7.894531 0.0976562 7.269531 0.21875 6.53125 0.21875 Z M 7.734375 -2.78125 C 8.640625 -2.78125 9.34375 -3.148438 9.84375 -3.890625 C 10.34375 -4.628906 10.59375 -5.601562 10.59375 -6.8125 C 10.59375 -8.03125 10.34375 -9 9.84375 -9.71875 C 9.351562 -10.4375 8.648438 -10.796875 7.734375 -10.796875 C 6.796875 -10.796875 6.082031 -10.425781 5.59375 -9.6875 C 5.101562 -8.957031 4.859375 -8 4.859375 -6.8125 C 4.859375 -5.625 5.101562 -4.65625 5.59375 -3.90625 C 6.09375 -3.15625 6.804688 -2.78125 7.734375 -2.78125 Z M 7.734375 -2.78125 "/></g></g></g><g fill="#2f4eff" fill-opacity="1"><g transform="translate(136.965362, 231.146351)"><g><path d="M 4.460938 0.101562 C 5.898438 0.101562 7.148438 -0.6875 7.808594 -1.847656 L 7.125 -2.238281 C 6.609375 -1.3125 5.609375 -0.699219 4.460938 -0.699219 C 2.773438 -0.699219 1.414062 -2.050781 1.414062 -3.75 C 1.414062 -5.449219 2.773438 -6.796875 4.460938 -6.796875 C 5.609375 -6.796875 6.609375 -6.1875 7.125 -5.261719 L 7.808594 -5.648438 C 7.148438 -6.8125 5.898438 -7.597656 4.460938 -7.597656 C 2.335938 -7.597656 0.613281 -5.875 0.613281 -3.75 C 0.613281 -1.625 2.335938 0.101562 4.460938 0.101562 Z M 4.460938 0.101562 "/></g></g></g><g fill="#2f4eff" fill-opacity="1"><g transform="translate(149.687163, 231.146351)"><g><path d="M 4.460938 0.101562 C 6.597656 0.101562 8.308594 -1.625 8.308594 -3.75 C 8.308594 -5.875 6.597656 -7.597656 4.460938 -7.597656 C 2.335938 -7.597656 0.613281 -5.875 0.613281 -3.75 C 0.613281 -1.625 2.335938 0.101562 4.460938 0.101562 Z M 4.460938 -0.699219 C 2.773438 -0.699219 1.414062 -2.050781 1.414062 -3.75 C 1.414062 -5.449219 2.773438 -6.796875 4.460938 -6.796875 C 6.160156 -6.796875 7.511719 -5.449219 7.511719 -3.75 C 7.511719 -2.050781 6.160156 -0.699219 4.460938 -0.699219 Z M 4.460938 -0.699219 "/></g></g></g><g fill="#2f4eff" fill-opacity="1"><g transform="translate(163.121187, 231.146351)"><g><path d="M 7.523438 -7.5 L 4.636719 -0.960938 L 1.761719 -7.5 L 0.914062 -7.5 L 0.914062 0 L 1.710938 0 L 1.710938 -5.921875 L 4.300781 0 L 4.960938 0 L 7.574219 -5.898438 L 7.574219 0 L 8.359375 0 L 8.359375 -7.5 Z M 7.523438 -7.5 "/></g></g></g><g fill="#2f4eff" fill-opacity="1"><g transform="translate(176.892582, 231.146351)"><g><path d="M 7.523438 -7.5 L 4.636719 -0.960938 L 1.761719 -7.5 L 0.914062 -7.5 L 0.914062 0 L 1.710938 0 L 1.710938 -5.921875 L 4.300781 0 L 4.960938 0 L 7.574219 -5.898438 L 7.574219 0 L 8.359375 0 L 8.359375 -7.5 Z M 7.523438 -7.5 "/></g></g></g><g fill="#2f4eff" fill-opacity="1"><g transform="translate(190.663978, 231.146351)"><g><path d="M 3.6875 0.101562 C 5.324219 0.101562 6.511719 -0.988281 6.511719 -2.460938 L 6.511719 -7.5 L 5.710938 -7.5 L 5.710938 -2.585938 C 5.710938 -1.5 4.847656 -0.699219 3.6875 -0.699219 C 2.523438 -0.699219 1.675781 -1.5 1.675781 -2.585938 L 1.675781 -7.5 L 0.875 -7.5 L 0.875 -2.460938 C 0.875 -0.988281 2.0625 0.101562 3.6875 0.101562 Z M 3.6875 0.101562 "/></g></g></g><g fill="#2f4eff" fill-opacity="1"><g transform="translate(202.548609, 231.146351)"><g><path d="M 6.296875 -7.5 L 6.296875 -1.335938 L 1.660156 -7.5 L 0.914062 -7.5 L 0.914062 0 L 1.710938 0 L 1.710938 -6.160156 L 6.335938 0 L 7.085938 0 L 7.085938 -7.5 Z M 6.296875 -7.5 "/></g></g></g><g fill="#2f4eff" fill-opacity="1"><g transform="translate(215.045499, 231.146351)"><g><path d="M 0.976562 0 L 1.773438 0 L 1.773438 -7.5 L 0.976562 -7.5 Z M 0.976562 0 "/></g></g></g><g fill="#2f4eff" fill-opacity="1"><g transform="translate(222.28193, 231.146351)"><g><path d="M 5.0625 -7.5 L 0.113281 -7.5 L 0.113281 -6.699219 L 2.1875 -6.699219 L 2.1875 0 L 2.988281 0 L 2.988281 -6.699219 L 5.0625 -6.699219 Z M 5.0625 -7.5 "/></g></g></g><g fill="#2f4eff" fill-opacity="1"><g transform="translate(231.954911, 231.146351)"><g><path d="M 6.046875 -7.5 L 5.0625 -7.5 L 3.035156 -4.386719 L 1.011719 -7.5 L 0.0117188 -7.5 L 2.636719 -3.550781 L 2.636719 0 L 3.4375 0 L 3.4375 -3.5625 Z M 6.046875 -7.5 "/></g></g></g></svg>